<?xml version="1.0" encoding="UTF-8"?><svg id="uuid-efa51268-de85-4f9b-a319-e23fed2b50d2" xmlns="http://www.w3.org/2000/svg" xmlns:xlink="http://www.w3.org/1999/xlink" viewBox="0 0 105 24">
<title>Porto Seguro logo - Brandlogos.net</title><defs><clipPath id="uuid-b6e03058-a202-401e-82d0-8d6b21f6676d"><rect x="0" width="105" height="24" style="fill:none;"/></clipPath></defs><g style="clip-path:url(#uuid-b6e03058-a202-401e-82d0-8d6b21f6676d);"><path d="M95.85,20.4c-2.8,0-4.66-2.14-4.66-5.22s1.86-5.22,4.66-5.22,4.63,2.13,4.63,5.22-1.86,5.22-4.63,5.22h0ZM95.85,6.37c-5.13,0-8.79,3.73-8.79,8.81s3.66,8.81,8.79,8.81,8.75-3.73,8.75-8.81-3.66-8.8-8.75-8.8" style="fill:#00a1fc;"/><path d="M77.11,1.5v16.26c0,3.79,2.4,5.96,6.06,5.96h2.73v-3.76h-2.26c-1.53,0-2.43-.88-2.43-2.61v-7.22h4.69v-3.49h-4.69V1.5h-4.09Z" style="fill:#00a1fc;"/><path d="M69.36,23.72v-10.7c0-1.73.9-2.61,2.43-2.61h3.26v-3.76h-3.72c-3.66,0-6.06,2.17-6.06,5.96v11.11h4.09Z" style="fill:#00a1fc;"/><path d="M54.7,20.4c-2.8,0-4.66-2.14-4.66-5.22s1.86-5.22,4.66-5.22,4.63,2.13,4.63,5.22-1.86,5.22-4.63,5.22h0ZM54.7,6.37c-5.13,0-8.79,3.73-8.79,8.81s3.68,8.82,8.79,8.82,8.75-3.73,8.75-8.81-3.66-8.81-8.75-8.81" style="fill:#00a1fc;"/><path d="M37.86,10.95h-4.73V3.77h4.73c2.6,0,3.66,1.69,3.66,3.59s-1.07,3.59-3.66,3.59ZM38.06,0h-9.35v23.71h4.43v-9.01h4.93c4.86,0,7.76-3.05,7.76-7.35s-2.9-7.36-7.76-7.36" style="fill:#00a1fc;"/><path d="M21.46,12.9c-2.16-2.59-9.28-1.24-14.82.5-.02,0-.03,0-.05,0-.02,0-.03,0-.05-.02-.01,0-.03-.02-.03-.03,0-.01-.01-.03-.01-.05,0-.27.01-.55.01-.82,0-1.38-.11-2.76-.35-4.12,0-.02,0-.05.02-.06.01-.02.03-.03.06-.04,4.59-1.65,13.84-2.14,15.42,4.56.03.1-.12.16-.19.07h0ZM16.82,20.42c-.15.11-.35-.07-.21-.21,2.23-2.24,4.07-5.78-12.12,1.44-.1.04-.2-.06-.13-.14.89-1.24,1.68-3.26,2.05-6.11,0-.02,0-.03.02-.05.01-.01.03-.03.04-.03,10.14-3.99,21.6-3.84,10.36,5.09h0ZM3.28,2.59s-.03-.03-.04-.05c0-.02,0-.04,0-.06,0-.02.02-.04.04-.05.02-.01.04-.02.06-.01,2.81,0,11.26-.21,15.62,5.23.06.09-.08.19-.16.12-1.31-1.12-4.87-3.02-13.08-1.36-.03,0-.05,0-.08,0s-.04-.03-.05-.06c-.65-2.04-1.47-3.15-2.3-3.75h0ZM21.3,0H2.87c-.77,0-1.5.31-2.04.84C.29,1.38,0,2.1,0,2.85v18.3c0,.37.07.74.21,1.08.14.34.35.66.62.92.27.26.58.48.93.62.35.14.72.22,1.1.22h18.43c.38,0,.75-.08,1.1-.22.35-.14.67-.36.93-.62.27-.26.48-.58.62-.92s.21-.71.21-1.08V2.86c0-.37-.07-.74-.21-1.09-.14-.34-.35-.66-.62-.92-.27-.27-.58-.48-.93-.62-.35-.15-.73-.22-1.11-.22" style="fill:#00a1fc;"/></g></svg>